<?xml version="1.0" encoding="UTF-8"?><svg id="Calque_1" xmlns="http://www.w3.org/2000/svg" viewBox="0 0 248.43 47.49"><defs><style>.cls-1{letter-spacing:-.01em;}.cls-2{letter-spacing:-.01em;}.cls-3{letter-spacing:-.05em;}.cls-4{fill:#e41d19;}.cls-5{font-size:30px;}.cls-6{font-size:15px;}.cls-7{fill:#f9004d;font-family:Montserrat-Bold, Montserrat;}.cls-8{letter-spacing:.01em;}</style></defs><text class="cls-7" transform="translate(.27 25.5)"><tspan class="cls-5"><tspan class="cls-3" x="0" y="0">V</tspan><tspan x="20.73" y="0">e</tspan><tspan class="cls-8" x="39.66" y="0">r</tspan><tspan class="cls-2" x="53.04" y="0">y</tspan><tspan class="cls-1" x="70.59" y="0">w</tspan><tspan x="98.25" y="0">ell Digital</tspan></tspan><tspan class="cls-6"><tspan x="0" y="18" xml:space="preserve">          le lab</tspan></tspan></text><path class="cls-4" d="M98.66,32.5c-.75-.01-1.48,.25-2.06,.73,0,0-.77-.77-2.04-.79s-2.06,.73-2.06,.73c-.57-.49-1.29-.78-2.04-.79-1.76-.02-3.21,1.41-3.23,3.19-.06,4.51,4.71,7.73,4.91,7.87l.22,.15,.23-.14c.08-.05,.89-.57,1.85-1.45,.93,.91,1.73,1.45,1.81,1.5l.22,.15,.23-.14c.21-.13,5.06-3.22,5.12-7.73,.02-1.78-1.39-3.26-3.15-3.28h0Zm-6.29,10.08c-.92-.68-4.36-3.47-4.31-6.99,.02-1.32,1.09-2.38,2.39-2.36,.54,0,1.07,.21,1.48,.56-.37,.52-.59,1.16-.6,1.84-.03,2.35,1.25,4.36,2.52,5.75-.62,.58-1.17,.99-1.47,1.2h0Zm-.21-6.94c0-.64,.27-1.23,.69-1.65,0,0,.69-.72,1.7-.71s1.68,.75,1.68,.75c.4,.44,.65,1.02,.64,1.67-.03,2.06-1.24,3.83-2.43,5.08-1.15-1.28-2.32-3.09-2.29-5.14h0Zm4.31,6.99c-.29-.21-.83-.64-1.44-1.23,1.3-1.36,2.64-3.33,2.67-5.68,0-.69-.19-1.33-.55-1.86,.42-.34,.95-.53,1.49-.52,1.3,.02,2.34,1.1,2.32,2.42-.05,3.52-3.57,6.22-4.5,6.87h0Z"/></svg>